<svg xmlns="http://www.w3.org/2000/svg" width="865.76" height="682.89" viewBox="0 0 865.76 682.89"><path d="M825,375.17c-2.26,64.19-29.62,125.18-76.7,168.87-39.67,36.81-83.27,59.68-122.65,73.88q-3.76,1.37-7.49,2.62a403.23,403.23,0,0,1-79.9,18.16,312.47,312.47,0,0,1-33.15,2.38q-3.57,0-7.13.29l-1.65.13q-6.29.53-12.48.93-4.78.32-9.51.56c-58.59,3.06-110.45-1.64-155.55-10.64q-4.29-.86-8.5-1.77-13.86-3-26.83-6.47-8.54-2.28-16.69-4.75l-.31-.09q-9.3-2.82-18.09-5.83c-13-4.44-25.11-9.15-36.44-14-8.35-3.58-16.26-7.24-23.71-10.91-61.51-30.27-92.52-61.65-92.52-61.65C-.51,411.75,57.94,296.33,57.94,296.33,79.53,223.49,231.48,182.5,231.48,182.5c85.42-21.57,134-70.14,134-70.14C532.69-63,699.93,62,699.93,62,813.65,134.87,828.27,282.72,825,375.17Z" fill="#ffb830"/><path d="M825,375.17c-2.26,64.19-29.62,125.18-76.7,168.87-39.67,36.81-83.27,59.68-122.65,73.88q-3.76,1.37-7.49,2.62a403.23,403.23,0,0,1-79.9,18.16,312.47,312.47,0,0,1-33.15,2.38q-3.57,0-7.13.29l-1.65.13q-6.29.53-12.48.93-4.78.32-9.51.56c-58.59,3.06-110.45-1.64-155.55-10.64q-4.29-.86-8.5-1.77-13.86-3-26.83-6.47-8.54-2.28-16.69-4.75l-.31-.09q-9.3-2.82-18.09-5.83c-13-4.44-25.11-9.15-36.44-14-8.35-3.58-16.26-7.24-23.71-10.91-61.51-30.27-92.52-61.65-92.52-61.65C-.51,411.75,57.94,296.33,57.94,296.33,79.53,223.49,231.48,182.5,231.48,182.5c85.42-21.57,134-70.14,134-70.14C532.69-63,699.93,62,699.93,62,813.65,134.87,828.27,282.72,825,375.17Z" fill="#fff" opacity="0.7"/><rect x="255.38" y="58.05" width="392.36" height="582.56" rx="29.11" fill="#ff2442"/><rect x="233.55" y="58.05" width="392.36" height="582.56" rx="29.11" fill="#ff2442"/><rect x="233.55" y="58.05" width="392.36" height="582.56" rx="29.11" fill="#fff" opacity="0.2"/><rect x="239.79" y="70.52" width="370.01" height="524.88" rx="32.56" fill="#ff2442"/><path d="M297.47,80.4V589.16H262.94A16.92,16.92,0,0,1,246,572.24V111A30.61,30.61,0,0,1,276.64,80.4Z" opacity="0.2"/><path d="M439.86,614.37A14.8,14.8,0,0,1,427.13,629a14.24,14.24,0,0,1-2.08.15,14.81,14.81,0,1,1,0-29.62,14.24,14.24,0,0,1,2.08.15A14.8,14.8,0,0,1,439.86,614.37Z" fill="#fff" opacity="0.2"/><ellipse cx="427.13" cy="614.37" rx="12.73" ry="14.66" fill="#fff" opacity="0.2"/><path d="M613,594.57l-1.56,27s13,12.47,31.7,8.84l7.8-39Z" fill="#f7bac3"/><path d="M696.71,601.84,706.07,633s16.63,6.76,31.18-3.11l-2.6-36.38Z" fill="#f7bac3"/><path d="M613,594.57l-.85,11.53s19.56,16,32,17l6.76-31.7Z" fill="#efa8b6"/><polygon points="696.71 601.84 699.49 610.55 735.42 606.1 734.65 593.53 696.71 601.84" fill="#efa8b6"/><path d="M719.19,355.27c.39.25,22.21,3.36,25.85-10.67l2.08-12.47-6.5-5.42-7,18.93Z" fill="#efa8b6"/><path d="M651.5,267.69s-30.14-1-30.14,24.94L620.84,328s18.19-9.35,32.22-4.15l-.52,40H717l4.68-60.8s.52-17.15-7.28-26c0,0-7.28-8.83-21.83-12.47l1,25.47H662.41Z" fill="#ffb830"/><path d="M620.84,328s7.79-11.43,29.1-8.31V298.87s11.43,23.91,3.12,24.95C653.06,323.82,641.11,318.62,620.84,328Z" fill="#fff" opacity="0.2"/><polygon points="728.41 305.11 711.78 360.71 666.57 348.24 683.72 291.6 728.41 305.11" fill="#ffedda"/><polygon points="711.78 360.71 733.61 345.64 753.36 291.6 728.41 305.11 711.78 360.71" fill="#ffedda"/><polygon points="711.78 360.71 733.61 345.64 753.36 291.6 728.41 305.11 711.78 360.71" fill="#fff" opacity="0.2"/><path d="M646.82,363.31s-10.91,22.87-16.63,70.16c0,0-4.67,63.4-14.55,98.22l-15.59,61.84s6.24.52,17.67,7.79c0,0,8.31,6.76,31.18,6.24L659.81,606l5.2-41.57S677.48,474,678,456.85l3.12-7.79-1,155.38,57.17-.52s-5.72-37.41-6.24-63.4l-.52-64.44S727.89,381.5,717,363.83Z" fill="#3db2ff"/><path d="M681.12,449.06s8.84-12.47,8.32-31.7l-.64-53.27" fill="none" stroke="#fff" stroke-miterlimit="10"/><path d="M701.28,363.79s3.67,33.08-11.88,30.59" fill="none" stroke="#fff" stroke-miterlimit="10"/><path d="M706.07,633s1,25,8.83,25.47c0,0,44.17,2.08,66-7.28,0,0,3.64-2.08-13.51-6.75l-29.1-12-1-2.59S725.29,639.26,706.07,633Z" fill="#ffb830"/><path d="M611.48,621.59s-5.71,21.83-1.56,26.51c0,0,18.38,13.41,64.37,15.95a1.28,1.28,0,0,0,1-2.17c-5.44-5.65-19.89-20.16-31.06-26.78l-1-4.67S627.07,634.58,611.48,621.59Z" fill="#ffb830"/><polygon points="662.93 239.11 662.93 259.89 651.5 267.69 662.41 290.04 693.59 290.04 692.55 264.57 683.72 260.93 683.72 250.02 665.56 237.71 662.93 239.11" fill="#f7bac3"/><path d="M670.24,246.71s1.53,10.59,13.48,14.22V250Z" fill="#efa8b6"/><path d="M683.72,252.1s10.65-.26,15.72-10.16c0,0,5.28,15.5,13.69,25.44a8.21,8.21,0,0,1,1.77,3.3,10.2,10.2,0,0,1-.52,6.36s-6.24-8.31-21.83-12.47l-8.83-3.64Z" fill="#7a1217"/><rect x="665.01" y="203.25" width="36.38" height="48.85" rx="13.27" fill="#f7bac3"/><path d="M621.36,292.63s-14-20.78.52-31.7c0,0,3.12-2.59,10.39-5.71,0,0,12.1-4.66,10.32-14.85-.28-1.57-.55-3.13-.73-4.72a67.07,67.07,0,0,0-1.27-8s-5.72-18.18,13.51-27c0,0,2.6-21.31,35.34-7.79,0,0,36.89,9.87,11.95,41V221.44a15.36,15.36,0,0,0-2.12-8.5s-5.68,1.74-17.63,3.3a5.45,5.45,0,0,0-3.64-3.12,6.59,6.59,0,0,1,1,3.12s-4.67,2.08-8.83.52a19.48,19.48,0,0,0-.52-4.16,36.29,36.29,0,0,1-4.57,16.82l-2.19,9.69v20.78l-11.43,7.8s-22.87,0-28.06,15.07A41.81,41.81,0,0,0,621.36,292.63Z" fill="#7a1217"/><circle cx="659.03" cy="234.17" r="7.54" fill="#f7bac3"/><path d="M702.64,321.56a22.28,22.28,0,0,0-4.66,4.73,12.77,12.77,0,0,0-2.19,4.87c-1.34,6.06-3.69,8.56-4.75,9.42a3.29,3.29,0,0,1-.56.38l-16.11,14c-14,10.91-27,11.43-27,11.43-27.54,1-26.5-38.46-26.5-38.46,19.23-9.87,32.22-4.15,32.22-4.15V331c5.2-3.71,19.75-6.17,19.75-6.17.43-16.21,14.55-22.08,19-23.52a2.67,2.67,0,0,1,.75-.12,2.42,2.42,0,0,1,1.35.42l.2.15a2.42,2.42,0,0,1,.09,3.64L690,309.23a.17.17,0,0,0,.18.29l7.57-2.52a1.75,1.75,0,0,1,.55-.08h0a1.7,1.7,0,0,1,1.08,3l-3.77,3.15a.25.25,0,0,0,.24.43l3.55-1.18a1.78,1.78,0,0,1,.59-.1,1.89,1.89,0,0,1,1.35.57,1.46,1.46,0,0,1,.26.34,1.86,1.86,0,0,1-.35,2.34l-3.39,3.09a.39.39,0,0,0,.35.66h0l2.87-.79a1.83,1.83,0,0,1,.46-.07,1.74,1.74,0,0,1,.56.1,1.7,1.7,0,0,1,1,.76A1.76,1.76,0,0,1,702.64,321.56Z" fill="#f7bac3"/><path d="M641.82,322.2s1.36,7.85-2.79,12.53c0,0-5.2,4.68-3.12,10.91,0,0,8.32-13.13,17.15-14.62v-7.2A33.09,33.09,0,0,0,641.82,322.2Z" fill="#efa8b6"/><path d="M690,309.23a.17.17,0,0,0,.18.29c-5.72,1.78.38-4.67,3.66-7.89l.2.15a2.42,2.42,0,0,1,.09,3.64Z" fill="#efa8b6"/><path d="M702.64,321.56a22.28,22.28,0,0,0-4.66,4.73,12.77,12.77,0,0,0-2.19,4.87c-1.34,6.06-3.69,8.56-4.75,9.42.27-4.73,1.86-16.86,11.12-22.1a1.7,1.7,0,0,1,1,.76A1.76,1.76,0,0,1,702.64,321.56Z" fill="#efa8b6"/><path d="M695.89,313.52l3.55-1.18c-3.78,2.64-6,2.79-7.2,2.43a1.54,1.54,0,0,1-.88-2.18c1.17-2.28,4.88-4.54,7-5.67a1.7,1.7,0,0,1,1.08,3l-3.77,3.15A.25.25,0,0,0,695.89,313.52Z" fill="#efa8b6"/><path d="M697.9,318.58a.39.39,0,0,0,.35.66c-.32.08-5.62,1.36-3.1-1.66l6.23-4.77a1.46,1.46,0,0,1,.26.34,1.86,1.86,0,0,1-.35,2.34Z" fill="#efa8b6"/><path d="M741.92,327.45l-.12,0a3.16,3.16,0,0,0,.43,6.17l3.85.55c5.72-1,2.08-5.72,2.08-5.72,3.12,0,2.08-5.19,2.08-5.19,3.12-1,1.56-5.2,1.56-5.2l.12-.06a3.22,3.22,0,0,0-1.13-6l-5.23-.66c-5.2,1-1.56,4.68-1.56,4.68-6.23-.52-5.71,2.6-5.71,2.6-1.56,4.16,4.67,3.64,4.67,3.64-4.67-1-5.19,2.07-5.19,2.07-.52,3.12,4,3.16,4,3.16l6.36,1" fill="#f7bac3"/><path d="M740.88,321.74a39.48,39.48,0,0,1,9.1,1.48,40.12,40.12,0,0,1-9.1-1.48Z" fill="#efa8b6"/><path d="M744,316a30.6,30.6,0,0,1,7.8,2.08A30.6,30.6,0,0,1,744,316Z" fill="#efa8b6"/><path d="M741.8,327.49a19.37,19.37,0,0,1,6.36,1,19.63,19.63,0,0,1-6.36-1Z" fill="#efa8b6"/><rect x="276.68" y="155.75" width="14.03" height="82.11" fill="#ffb830"/><rect x="290.71" y="155.75" width="4.68" height="82.11" fill="#ffb830"/><rect x="290.71" y="155.75" width="4.68" height="82.11" fill="#fff" opacity="0.2"/><rect x="293.31" y="155.75" width="14.03" height="82.11" fill="#ffb830"/><rect x="307.34" y="155.75" width="4.68" height="82.11" fill="#ffb830"/><rect x="307.34" y="155.75" width="4.68" height="82.11" fill="#fff" opacity="0.2"/><rect x="309.94" y="155.75" width="14.03" height="82.11" fill="#ffb830"/><rect x="323.97" y="155.75" width="4.68" height="82.11" fill="#ffb830"/><rect x="323.97" y="155.75" width="4.68" height="82.11" fill="#fff" opacity="0.2"/><rect x="326.57" y="155.75" width="14.03" height="82.11" fill="#ffb830"/><rect x="340.6" y="155.75" width="9.35" height="82.11" fill="#ffb830"/><rect x="340.6" y="155.75" width="9.35" height="82.11" fill="#fff" opacity="0.2"/><rect x="346.84" y="155.75" width="14.03" height="82.11" fill="#ffb830"/><rect x="360.87" y="155.75" width="4.68" height="82.11" fill="#ffb830"/><rect x="360.87" y="155.75" width="4.68" height="82.11" fill="#fff" opacity="0.2"/><rect x="361.91" y="155.75" width="14.03" height="82.11" fill="#ffb830"/><rect x="375.94" y="155.75" width="4.68" height="82.11" fill="#ffb830"/><rect x="375.94" y="155.75" width="4.68" height="82.11" fill="#fff" opacity="0.2"/><rect x="379.06" y="155.75" width="14.03" height="82.11" fill="#ffb830"/><rect x="393.09" y="155.75" width="8.83" height="82.11" fill="#ffb830"/><rect x="393.09" y="155.75" width="8.83" height="82.11" fill="#fff" opacity="0.2"/><rect x="398.81" y="148.73" width="14.03" height="89.64" fill="#ffb830"/><rect x="412.84" y="148.73" width="8.83" height="89.64" fill="#ffb830"/><rect x="412.84" y="148.73" width="8.83" height="89.64" fill="#fff" opacity="0.2"/><rect x="416.48" y="148.73" width="11.96" height="89.64" fill="#ffb830"/><rect x="428.43" y="148.73" width="7.53" height="89.64" fill="#ffb830"/><rect x="428.43" y="148.73" width="7.53" height="89.64" fill="#fff" opacity="0.2"/><rect x="431.55" y="148.73" width="11.96" height="89.64" fill="#ffb830"/><rect x="443.51" y="148.73" width="9.87" height="89.64" fill="#ffb830"/><rect x="443.51" y="148.73" width="9.87" height="89.64" fill="#fff" opacity="0.2"/><rect x="521.92" y="148.99" width="7.06" height="86.53" fill="#ffb830"/><polygon points="506.46 235.38 506.46 154.79 521.92 148.99 521.92 235.52 506.46 235.38" fill="#ffb830"/><polygon points="506.46 235.38 506.46 154.79 521.92 148.99 521.92 235.52 506.46 235.38" fill="#fff" opacity="0.2"/><rect x="531.85" y="158.35" width="10.39" height="77.43" fill="#ffb830"/><rect x="558.87" y="158.35" width="8.83" height="77.43" fill="#ffb830"/><rect x="558.87" y="158.35" width="8.83" height="77.43" fill="#fff" opacity="0.2"/><rect x="573.94" y="158.35" width="10.91" height="77.43" fill="#ffb830"/><rect x="573.94" y="158.35" width="10.91" height="77.43" fill="#fff" opacity="0.2"/><rect x="592.13" y="158.35" width="17.15" height="77.43" fill="#ffb830"/><rect x="592.13" y="158.35" width="17.15" height="77.43" fill="#fff" opacity="0.2"/><polygon points="554.19 162.51 542.24 158.35 542.24 235.78 554.35 235.78 554.19 162.51" fill="#ffb830"/><polygon points="554.19 162.51 542.24 158.35 542.24 235.78 554.35 235.78 554.19 162.51" fill="#fff" opacity="0.2"/><polygon points="480.15 236.65 468.55 239.53 465.67 228 463.62 219.75 449.99 165.07 449.74 164.06 446.87 152.55 458.47 149.66 461.46 161.65 461.76 162.84 475.05 216.18 477.25 225 480.15 236.65" fill="#ffb830"/><polygon points="458.47 149.66 472.6 158.35 490.75 235.89 480.15 236.64 458.47 149.66" fill="#ffb830"/><polygon points="490.75 235.89 480.15 236.64 477.25 225 475.05 216.18 461.76 162.84 461.46 161.65 458.47 149.66 472.6 158.35 474.84 167.9 475.06 168.85 486.52 217.82 488.35 225.64 490.75 235.89" fill="#fff" opacity="0.2"/><g opacity="0.2"><polygon points="475.06 168.85 461.95 162.8 461.76 162.84 449.99 165.07 449.74 164.06 461.42 161.63 461.46 161.65 474.84 167.9 475.06 168.85" fill="#fff"/></g><polygon points="488.35 225.64 477.25 225 476.95 224.98 465.67 228 463.62 219.75 475.05 216.18 475.39 216.07 486.52 217.82 488.35 225.64" fill="#fff" opacity="0.2"/><rect x="509.5" y="142.76" width="7.8" height="93.02" fill="#ffb830"/><polygon points="492.43 235.63 492.43 148.99 509.5 142.76 509.5 235.78 492.43 235.63" fill="#ffb830"/><polygon points="492.43 235.63 492.43 148.99 509.5 142.76 509.5 235.78 492.43 235.63" fill="#fff" opacity="0.2"/><rect x="550.55" y="158.35" width="12.47" height="77.43" fill="#ffb830"/><rect x="565.62" y="158.35" width="12.47" height="77.43" fill="#ffb830"/><rect x="583.81" y="158.35" width="12.47" height="77.43" fill="#ffb830"/><path d="M610.06,235.78v21.31H280.49a9,9,0,0,1-9-9v-3.33a8.81,8.81,0,0,1,1.12-4.34,9,9,0,0,1,7.88-4.65Z" fill="#ff2442"/><path d="M610.06,235.78v21.31H280.49a9,9,0,0,1-9-9v-3.33a8.81,8.81,0,0,1,1.12-4.34,9,9,0,0,1,7.88-4.65Z" fill="#fff" opacity="0.2"/><path d="M610.06,235.78v7.8H279.45a9,9,0,0,1-6.84-3.15,9,9,0,0,1,7.88-4.65Z" fill="#fff" opacity="0.2"/><rect x="276.68" y="303.08" width="14.03" height="82.11" fill="#ffb830"/><rect x="290.71" y="303.08" width="4.68" height="82.11" fill="#ffb830"/><rect x="290.71" y="303.08" width="4.68" height="82.11" fill="#fff" opacity="0.2"/><rect x="293.31" y="303.08" width="14.03" height="82.11" fill="#ffb830"/><rect x="307.34" y="303.08" width="4.68" height="82.11" fill="#ffb830"/><rect x="307.34" y="303.08" width="4.68" height="82.11" fill="#fff" opacity="0.2"/><rect x="309.94" y="303.08" width="14.03" height="82.11" fill="#ffb830"/><rect x="323.97" y="303.08" width="4.68" height="82.11" fill="#ffb830"/><rect x="323.97" y="303.08" width="4.68" height="82.11" fill="#fff" opacity="0.2"/><rect x="326.57" y="303.08" width="14.03" height="82.11" fill="#ffb830"/><rect x="340.6" y="303.08" width="9.35" height="82.11" fill="#ffb830"/><rect x="340.6" y="303.08" width="9.35" height="82.11" fill="#fff" opacity="0.2"/><rect x="346.84" y="303.08" width="14.03" height="82.11" fill="#ffb830"/><rect x="360.87" y="303.08" width="4.68" height="82.11" fill="#ffb830"/><rect x="360.87" y="303.08" width="4.68" height="82.11" fill="#fff" opacity="0.2"/><rect x="361.91" y="303.08" width="14.03" height="82.11" fill="#ffb830"/><rect x="375.94" y="303.08" width="4.68" height="82.11" fill="#ffb830"/><rect x="375.94" y="303.08" width="4.68" height="82.11" fill="#fff" opacity="0.2"/><rect x="379.06" y="303.08" width="14.03" height="82.11" fill="#ffb830"/><rect x="393.09" y="303.08" width="8.83" height="82.11" fill="#ffb830"/><rect x="393.09" y="303.08" width="8.83" height="82.11" fill="#fff" opacity="0.2"/><rect x="398.81" y="296.06" width="14.03" height="89.64" fill="#ffb830"/><rect x="412.84" y="296.06" width="8.83" height="89.64" fill="#ffb830"/><rect x="412.84" y="296.06" width="8.83" height="89.64" fill="#fff" opacity="0.2"/><rect x="416.48" y="296.06" width="11.96" height="89.64" fill="#ffb830"/><rect x="428.43" y="296.06" width="7.53" height="89.64" fill="#ffb830"/><rect x="428.43" y="296.06" width="7.53" height="89.64" fill="#fff" opacity="0.2"/><rect x="431.55" y="296.06" width="11.96" height="89.64" fill="#ffb830"/><rect x="443.51" y="296.06" width="9.87" height="89.64" fill="#ffb830"/><rect x="443.51" y="296.06" width="9.87" height="89.64" fill="#fff" opacity="0.2"/><rect x="521.92" y="296.32" width="7.06" height="86.53" fill="#ffb830"/><polygon points="506.46 382.71 506.46 302.12 521.92 296.32 521.92 382.85 506.46 382.71" fill="#ffb830"/><polygon points="506.46 382.71 506.46 302.12 521.92 296.32 521.92 382.85 506.46 382.71" fill="#fff" opacity="0.2"/><rect x="531.85" y="305.68" width="10.39" height="77.43" fill="#ffb830"/><rect x="558.87" y="305.68" width="8.83" height="77.43" fill="#ffb830"/><rect x="558.87" y="305.68" width="8.83" height="77.43" fill="#fff" opacity="0.2"/><rect x="573.94" y="305.68" width="10.91" height="77.43" fill="#ffb830"/><rect x="573.94" y="305.68" width="10.91" height="77.43" fill="#fff" opacity="0.2"/><rect x="592.13" y="305.68" width="17.15" height="77.43" fill="#ffb830"/><rect x="592.13" y="305.68" width="17.15" height="77.43" fill="#fff" opacity="0.2"/><polygon points="554.19 309.83 542.24 305.68 542.24 383.11 554.35 383.11 554.19 309.83" fill="#ffb830"/><polygon points="554.19 309.83 542.24 305.68 542.24 383.11 554.35 383.11 554.19 309.83" fill="#fff" opacity="0.2"/><polygon points="480.15 383.98 468.55 386.86 465.67 375.33 463.62 367.08 449.99 312.4 449.74 311.39 446.87 299.88 458.47 296.99 461.46 308.98 461.76 310.17 475.05 363.5 477.25 372.33 480.15 383.98" fill="#ffb830"/><polygon points="458.47 296.99 472.6 305.68 490.75 383.22 480.15 383.97 458.47 296.99" fill="#ffb830"/><polygon points="490.75 383.22 480.15 383.97 477.25 372.33 475.05 363.5 461.76 310.17 461.46 308.98 458.47 296.99 472.6 305.68 474.84 315.23 475.06 316.18 486.52 365.15 488.35 372.97 490.75 383.22" fill="#fff" opacity="0.2"/><g opacity="0.2"><polygon points="475.06 316.18 461.95 310.13 461.76 310.17 449.99 312.4 449.74 311.39 461.42 308.96 461.46 308.98 474.84 315.23 475.06 316.18" fill="#fff"/></g><polygon points="488.35 372.97 477.25 372.33 476.95 372.31 465.67 375.33 463.62 367.08 475.05 363.5 475.39 363.4 486.52 365.15 488.35 372.97" fill="#fff" opacity="0.2"/><rect x="509.5" y="290.09" width="7.8" height="93.02" fill="#ffb830"/><polygon points="492.43 382.96 492.43 296.32 509.5 290.09 509.5 383.11 492.43 382.96" fill="#ffb830"/><polygon points="492.43 382.96 492.43 296.32 509.5 290.09 509.5 383.11 492.43 382.96" fill="#fff" opacity="0.2"/><rect x="550.55" y="305.68" width="12.47" height="77.43" fill="#ffb830"/><rect x="565.62" y="305.68" width="12.47" height="77.43" fill="#ffb830"/><rect x="583.81" y="305.68" width="12.47" height="77.43" fill="#ffb830"/><path d="M610.06,383.11v21.31H280.49a9,9,0,0,1-9-9V392.1a8.81,8.81,0,0,1,1.12-4.34,9,9,0,0,1,7.88-4.65Z" fill="#ff2442"/><path d="M610.06,383.11v21.31H280.49a9,9,0,0,1-9-9V392.1a8.81,8.81,0,0,1,1.12-4.34,9,9,0,0,1,7.88-4.65Z" fill="#fff" opacity="0.2"/><path d="M610.06,383.11v7.79H279.45a9,9,0,0,1-6.84-3.14,9,9,0,0,1,7.88-4.65Z" fill="#fff" opacity="0.2"/><rect x="276.68" y="450.41" width="14.03" height="82.11" fill="#ffb830"/><rect x="290.71" y="450.41" width="4.68" height="82.11" fill="#ffb830"/><rect x="290.71" y="450.41" width="4.68" height="82.11" fill="#fff" opacity="0.2"/><rect x="293.31" y="450.41" width="14.03" height="82.11" fill="#ffb830"/><rect x="307.34" y="450.41" width="4.68" height="82.11" fill="#ffb830"/><rect x="307.34" y="450.41" width="4.68" height="82.11" fill="#fff" opacity="0.2"/><rect x="309.94" y="450.41" width="14.03" height="82.11" fill="#ffb830"/><rect x="323.97" y="450.41" width="4.68" height="82.11" fill="#ffb830"/><rect x="323.97" y="450.41" width="4.68" height="82.11" fill="#fff" opacity="0.2"/><rect x="326.57" y="450.41" width="14.03" height="82.11" fill="#ffb830"/><rect x="340.6" y="450.41" width="9.35" height="82.11" fill="#ffb830"/><rect x="340.6" y="450.41" width="9.35" height="82.11" fill="#fff" opacity="0.2"/><rect x="346.84" y="450.41" width="14.03" height="82.11" fill="#ffb830"/><rect x="360.87" y="450.41" width="4.68" height="82.11" fill="#ffb830"/><rect x="360.87" y="450.41" width="4.68" height="82.11" fill="#fff" opacity="0.2"/><rect x="361.91" y="450.41" width="14.03" height="82.11" fill="#ffb830"/><rect x="375.94" y="450.41" width="4.68" height="82.11" fill="#ffb830"/><rect x="375.94" y="450.41" width="4.68" height="82.11" fill="#fff" opacity="0.2"/><rect x="379.06" y="450.41" width="14.03" height="82.11" fill="#ffb830"/><rect x="393.09" y="450.41" width="8.83" height="82.11" fill="#ffb830"/><rect x="393.09" y="450.41" width="8.83" height="82.11" fill="#fff" opacity="0.2"/><rect x="398.81" y="443.39" width="14.03" height="89.64" fill="#ffb830"/><rect x="412.84" y="443.39" width="8.83" height="89.64" fill="#ffb830"/><rect x="412.84" y="443.39" width="8.83" height="89.64" fill="#fff" opacity="0.2"/><rect x="416.48" y="443.39" width="11.96" height="89.64" fill="#ffb830"/><rect x="428.43" y="443.39" width="7.53" height="89.64" fill="#ffb830"/><rect x="428.43" y="443.39" width="7.53" height="89.64" fill="#fff" opacity="0.2"/><rect x="431.55" y="443.39" width="11.96" height="89.64" fill="#ffb830"/><rect x="443.51" y="443.39" width="9.87" height="89.64" fill="#ffb830"/><rect x="443.51" y="443.39" width="9.87" height="89.64" fill="#fff" opacity="0.2"/><rect x="521.92" y="443.65" width="7.06" height="86.53" fill="#ffb830"/><polygon points="506.46 530.04 506.46 449.45 521.92 443.65 521.92 530.18 506.46 530.04" fill="#ffb830"/><polygon points="506.46 530.04 506.46 449.45 521.92 443.65 521.92 530.18 506.46 530.04" fill="#fff" opacity="0.2"/><rect x="531.85" y="453.01" width="10.39" height="77.43" fill="#ffb830"/><rect x="558.87" y="453.01" width="8.83" height="77.43" fill="#ffb830"/><rect x="558.87" y="453.01" width="8.83" height="77.43" fill="#fff" opacity="0.2"/><rect x="573.94" y="453.01" width="10.91" height="77.43" fill="#ffb830"/><rect x="573.94" y="453.01" width="10.91" height="77.43" fill="#fff" opacity="0.2"/><rect x="592.13" y="453.01" width="17.15" height="77.43" fill="#ffb830"/><rect x="592.13" y="453.01" width="17.15" height="77.43" fill="#fff" opacity="0.2"/><polygon points="554.19 457.16 542.24 453.01 542.24 530.44 554.35 530.44 554.19 457.16" fill="#ffb830"/><polygon points="554.19 457.16 542.24 453.01 542.24 530.44 554.35 530.44 554.19 457.16" fill="#fff" opacity="0.2"/><polygon points="480.15 531.3 468.55 534.19 465.67 522.66 463.62 514.41 449.99 459.73 449.74 458.71 446.87 447.21 458.47 444.32 461.46 456.31 461.76 457.49 475.05 510.83 477.25 519.66 480.15 531.3" fill="#ffb830"/><polygon points="458.47 444.32 472.6 453.01 490.75 530.55 480.15 531.3 458.47 444.32" fill="#ffb830"/><polygon points="490.75 530.55 480.15 531.3 477.25 519.66 475.05 510.83 461.76 457.49 461.46 456.31 458.47 444.31 472.6 453.01 474.84 462.56 475.06 463.51 486.52 512.48 488.35 520.3 490.75 530.55" fill="#fff" opacity="0.2"/><g opacity="0.2"><polygon points="475.06 463.51 461.95 457.46 461.76 457.49 449.99 459.73 449.74 458.71 461.42 456.29 461.46 456.31 474.84 462.56 475.06 463.51" fill="#fff"/></g><polygon points="488.35 520.3 477.25 519.66 476.95 519.64 465.67 522.66 463.62 514.41 475.05 510.83 475.39 510.73 486.52 512.48 488.35 520.3" fill="#fff" opacity="0.2"/><rect x="509.5" y="437.42" width="7.8" height="93.02" fill="#ffb830"/><polygon points="492.43 530.29 492.43 443.65 509.5 437.42 509.5 530.44 492.43 530.29" fill="#ffb830"/><polygon points="492.43 530.29 492.43 443.65 509.5 437.42 509.5 530.44 492.43 530.29" fill="#fff" opacity="0.2"/><rect x="550.55" y="453.01" width="12.47" height="77.43" fill="#ffb830"/><rect x="565.62" y="453.01" width="12.47" height="77.43" fill="#ffb830"/><rect x="583.81" y="453.01" width="12.47" height="77.43" fill="#ffb830"/><path d="M610.06,530.44v21.31H280.49a9,9,0,0,1-9-9v-3.34a8.87,8.87,0,0,1,1.12-4.34,9,9,0,0,1,7.88-4.64Z" fill="#ff2442"/><path d="M610.06,530.44v21.31H280.49a9,9,0,0,1-9-9v-3.34a8.87,8.87,0,0,1,1.12-4.34,9,9,0,0,1,7.88-4.64Z" fill="#fff" opacity="0.2"/><path d="M610.06,530.44v7.79H279.45a9,9,0,0,1-6.84-3.15,9,9,0,0,1,7.88-4.64Z" fill="#fff" opacity="0.2"/><path d="M609.28,113.25V571.72a16.92,16.92,0,0,1-16.92,16.92H262.94A16.92,16.92,0,0,1,246,571.72V110.49a30.61,30.61,0,0,1,30.62-30.61H575.91A33.37,33.37,0,0,1,609.28,113.25Z" fill="#fff" opacity="0.37"/><polygon points="377.5 79.88 246 329.34 245.91 491.13 473.08 79.84 377.5 79.88" fill="#fff" opacity="0.25"/><path d="M512.85,79.8h40.77l-270.44,509-20.24-.19a14.82,14.82,0,0,1-14.84-9.87Z" fill="#fff" opacity="0.25"/><polygon points="192.49 226.43 190.94 246.69 211.72 245.66 212.76 231.62 198.21 222.27 192.49 226.43" fill="#f7bac3"/><path d="M200.47,232.1s-.18,9.92,11.25,13.55l.52-7S207.92,239.33,200.47,232.1Z" fill="#efa8b6"/><path d="M339.66,316.43c-.65.75-2.2,2-5.62,2.42a.81.81,0,0,0-.71.82v0a.82.82,0,0,0,.82.78h4.11a.7.7,0,0,1,.67.92,3,3,0,0,1-.49.88,7.76,7.76,0,0,1-4.07,2.36s.17,8.09-21.74,7.16c0,0-.32-9.05-7.48-14.34,0,0,3.8-9.81,12.09-16.15a1.38,1.38,0,0,1,1.21-.24,1.42,1.42,0,0,1,1,1.09,16.39,16.39,0,0,1-.17,5.85l3.93.28,15.32,1.12a1.31,1.31,0,0,1,1,.56,1.28,1.28,0,0,1-.15,1.63,10.7,10.7,0,0,1-5,2.64s3.31,0,5.13,1.11A.7.7,0,0,1,339.66,316.43Z" fill="#f7bac3"/><path d="M323.23,308.3v.13l-7.57.63c2.29-4.08,2.84-6.54,2.79-8a1.42,1.42,0,0,1,1,1.09,16.39,16.39,0,0,1-.17,5.85Z" fill="#efa8b6"/><path d="M339.37,311.61a10.7,10.7,0,0,1-5,2.64s-7.28,2.08-5.2-.52c0,0,6.78-1.76,10.35-3.75A1.28,1.28,0,0,1,339.37,311.61Z" fill="#efa8b6"/><path d="M339.66,316.43c-.65.75-2.2,2-5.62,2.42a.81.81,0,0,0-.71.82v0l-4.15.69a1.15,1.15,0,0,1-1.18-.49c-.25-.43-.26-1.07.91-1.86a1.12,1.12,0,0,1,.56-.18A63.86,63.86,0,0,0,339.66,316.43Z" fill="#efa8b6"/><path d="M338.44,322.29a7.76,7.76,0,0,1-4.07,2.36,14,14,0,0,1-4.95-1.3.67.67,0,0,1,.31-1.28l8.62.08Z" fill="#efa8b6"/><path d="M268.89,635.41c-7.28,7.8-54,3.12-54,3.12L206,438.46l-3.12-1.56,3.64,109.65-3.12,83.67c-12.77-9.48-23.45-13.42-31.83-14.62-14.12-2-21.7,3.7-21.7,3.7l8.32-76.39,9.87-110.17c1-45.73,5.77-55.82,5.77-55.82L209.12,361l39.47,9.18Z" fill="#ffb830"/><path d="M206.53,546.55l-3.12,83.67c-12.77-9.48-23.45-13.42-31.83-14.62l19.88-187.54s4.67,7.28,11.43,8.84Z" fill="#fff" opacity="0.2"/><path d="M149.88,619.3s.52,6.76,16.63,10.92c0,0,18.71,5.19,36.9,0C203.41,630.22,172.75,605.27,149.88,619.3Z" fill="#ffb830"/><path d="M149.88,619.3s.52,6.76,16.63,10.92c0,0,18.71,5.19,36.9,0C203.41,630.22,172.75,605.27,149.88,619.3Z" fill="#fff" opacity="0.2"/><path d="M158.2,615.67l-.36,11.92s25.3,9.9,41.93,5.23l.42-4.91S180,612,158.2,615.67Z" fill="#f7bac3"/><path d="M157.7,645.12l.14-17.53s22.18,9.9,41.93,5.23c0,0,20.23,9.67,26.7,17.69a1.17,1.17,0,0,1-1,1.91L161,648.6A3.47,3.47,0,0,1,157.7,645.12Z" fill="#3db2ff"/><path d="M223.18,639.32l1.74,13.17,66.24,5a1.51,1.51,0,0,0,1.21-2.54,78,78,0,0,0-25.58-17.84S255.42,642.19,223.18,639.32Z" fill="#3db2ff"/><rect x="193.67" y="180.35" width="43" height="59" rx="15.68" transform="translate(-43.71 57.16) rotate(-13.75)" fill="#f7bac3"/><path d="M186.26,223.31s-29.62-24.95,1-38.46c0,0,.52-16.11,28.06-10.39a30.65,30.65,0,0,0,7.69-.06,20.59,20.59,0,0,1,18.73,7.34c4.68,5.83,7,14.18-5.11,25.46L233.92,196A27.52,27.52,0,0,1,220,204.6s1-2.6-2.6-2.6a9.18,9.18,0,0,1-5.3-.29,4.16,4.16,0,0,0-5.2,1.89,10,10,0,0,0-.93,4.64s.52,8.83-3.64,7.27C202.37,215.51,185.22,209.8,186.26,223.31Z" fill="#7a1217"/><path d="M312.54,333s-36.9,44.69-60.28,22.87v13l-19.84,7.74-1.47.57s-39,11.44-59.24-1l-5.5-35.7-.74-4.83s-6.88-46.9-1.07-63.18a11.59,11.59,0,0,1,2.11-3.86c9.35-10.39,9.35-9.35,9.35-9.35s6.76-5.72,6.76-8.84c0,0,.35-6,8.75-6.66,0,0,18.79-4.77,24.51.43,0,0,3.64,3.63,20.27,10.39,0,0,23.9,5.2,32.22,41.05l7.27,26.51,24.95-7.8a24.16,24.16,0,0,1,8.25,7.2A19.49,19.49,0,0,1,312.54,333Z" fill="#3db2ff"/><path d="M308.84,321.45c-12.74,8.66-32.16,10.47-32.16,10.47l-1-9.87,24.95-7.8A24.16,24.16,0,0,1,308.84,321.45Z" fill="#fff" opacity="0.2"/><path d="M166.21,340.39l-.2.13c-13-10.62-12-35.1-12-35.1,0-26,10.29-33.2,10.29-33.2l.07.16c-5.81,16.28,1.07,63.18,1.07,63.18Z" fill="#3db2ff"/><path d="M166.21,340.39l-.2.13c-13-10.62-12-35.1-12-35.1,0-26,10.29-33.2,10.29-33.2l.07.16c-5.81,16.28,1.07,63.18,1.07,63.18Z" fill="#fff" opacity="0.2"/><circle cx="192.75" cy="220.45" r="8.57" fill="#f7bac3"/><path d="M252.26,355.83v13l-19.84,7.74c-1.28-44.75,2.69-58.15,2.69-58.15C237.71,337.64,252.26,355.83,252.26,355.83Z" fill="#fff" opacity="0.2"/><rect x="388.15" y="61.98" width="62.88" height="5.2" fill="#fff" opacity="0.2"/><rect x="456.75" y="61.98" width="6.24" height="5.2" fill="#fff" opacity="0.2"/></svg>