<svg xmlns="http://www.w3.org/2000/svg" width="865.76" height="682.89" viewBox="0 0 865.76 682.89"><path d="M721.94,156.88c-12.05-27-33.47-49.79-57.67-70.63C609.38,39,538.29,14.82,465.64,11,391.2,7.06,313.31,22.48,251.5,66S146.78,183.69,152.46,258c5,65.12,45,128.65,25.62,191.66C171,472.91,156,494.12,154,518.22c-5.68,66.75,64.95,96.85,118.2,111.23,78.71,21.27,163.34,28,245.1,22.3,43.57-3,88.79-11.58,129.63-28.29,61.59-25.18,99.34-74.58,67-138.3-19-37.49-35.47-69.1-28.12-113.28,8.62-51.88,38.11-98.55,45.11-150.76A116.52,116.52,0,0,0,721.94,156.88Z" fill="#497991"/><path d="M721.94,156.88c-12.05-27-33.47-49.79-57.67-70.63C609.38,39,538.29,14.82,465.64,11,391.2,7.06,313.31,22.48,251.5,66S146.78,183.69,152.46,258c5,65.12,45,128.65,25.62,191.66C171,472.91,156,494.12,154,518.22c-5.68,66.75,64.95,96.85,118.2,111.23,78.71,21.27,163.34,28,245.1,22.3,43.57-3,88.79-11.58,129.63-28.29,61.59-25.18,99.34-74.58,67-138.3-19-37.49-35.47-69.1-28.12-113.28,8.62-51.88,38.11-98.55,45.11-150.76A116.52,116.52,0,0,0,721.94,156.88Z" fill="#fff" opacity="0.7" style="isolation:isolate"/><polygon points="756.81 672.49 108.95 672.49 182.36 534.91 692.64 534.91 756.81 672.49" fill="#ef904b"/><path d="M235.31,634.91s-7.12,7.88,0,11.44c0,0,5.58,1.5,8.66-1.06,0,0,3.59-3.6,6.16.51,0,0,4.1,6.16,13.34-1.54,0,0,2.06-2.57,5.14,1.54,0,0,4.1,2.57,8.72-1.54,0,0,4.62-5.14,9.24-1.54v2.75l24.13-2.75L309,626Z" fill="#497991"/><path d="M235.31,634.91s-7.12,7.88,0,11.44c0,0,5.58,1.5,8.66-1.06,0,0,3.59-3.6,6.16.51,0,0,4.1,6.16,13.34-1.54,0,0,2.06-2.57,5.14,1.54,0,0,4.1,2.57,8.72-1.54,0,0,4.62-5.14,9.24-1.54v2.75l24.13-2.75L309,626Z" opacity="0.2"/><path d="M307.11,617.05c7.19,12.32-5.65,14.89-5.65,14.89-26.69,7.92-53.73,6.36-62.93,5.5a3.55,3.55,0,0,1-2.15-6.08c5.36-5.21,20.93-8.15,20.93-8.15,15.92-6.67,10.78-21.56,10.78-21.56l-4.1-34.4H309.3l-3.84,21.82C301.24,611.4,307.11,617.05,307.11,617.05Z" fill="#d61e00"/><path d="M307.11,617.05c7.19,12.32-5.65,14.89-5.65,14.89-26.69,7.92-53.73,6.36-62.93,5.5a3.55,3.55,0,0,1-2.15-6.08c5.36-5.21,20.93-8.15,20.93-8.15,15.92-6.67,10.78-21.56,10.78-21.56l-4.1-34.4H309.3l-3.84,21.82C301.24,611.4,307.11,617.05,307.11,617.05Z" opacity="0.2"/><path d="M610.33,129.78s-5.09-.88-5.09,4.76c0,0,0,2.82,4.23,3.29h12.25a6.47,6.47,0,0,0,3.24-1.08,2.6,2.6,0,0,0-2.24-4.58l-.09,0s0-4.7-4.7-4.23C617.93,128,610.73,126.42,610.33,129.78Z" fill="#497991"/><rect x="167.48" y="142.19" width="15.07" height="109.09" fill="#611d1c"/><rect x="197.61" y="148.35" width="26.5" height="38.5" fill="#611d1c"/><polygon points="299.46 244.35 267.76 244.35 267.76 169.91 299.46 167.35 299.46 244.35" fill="#611d1c"/><rect x="176.83" y="234.6" width="166.79" height="16.68" fill="#611d1c"/><rect x="195.02" y="182.24" width="31.7" height="62.12" fill="#611d1c"/><rect x="231.39" y="182.24" width="31.7" height="62.12" fill="#611d1c"/><rect x="452.22" y="180.55" width="28.84" height="63.55" fill="#611d1c"/><rect x="335.08" y="124.74" width="24.11" height="47.74" fill="#611d1c"/><rect x="332.71" y="164.27" width="28.84" height="80.6" fill="#611d1c"/><rect x="365.97" y="173.51" width="28.84" height="71.36" fill="#611d1c"/><rect x="294.26" y="113.96" width="27.54" height="130.39" fill="#611d1c"/><rect x="512.5" y="229.47" width="166.79" height="24.64" fill="#611d1c"/><rect x="588.64" y="126.28" width="24.11" height="47.74" fill="#611d1c"/><rect x="586.28" y="165.81" width="28.84" height="80.6" fill="#611d1c"/><rect x="619.54" y="173" width="28.84" height="73.41" fill="#611d1c"/><polygon points="679.55 245.89 653.83 245.89 653.83 148.35 679.55 144.76 679.55 245.89" fill="#611d1c"/><rect x="454.59" y="149.38" width="24.11" height="37.64" fill="#611d1c"/><polygon points="554.59 243.33 522.89 243.33 522.89 168.89 554.59 166.32 554.59 243.33" fill="#611d1c"/><rect x="549.39" y="112.93" width="27.54" height="130.39" fill="#611d1c"/><rect x="167.48" y="136.55" width="512.33" height="5.65" fill="#ef904b"/><path d="M278.79,85.65s-5.56-1-5.56,5.21c0,0,0,3.08,4.62,3.59h13.39a7,7,0,0,0,3.53-1.18,2.84,2.84,0,0,0-2.44-5l-.11,0s0-5.13-5.13-4.62C287.09,83.67,279.22,82,278.79,85.65Z" fill="#497991"/><path d="M273.47,88.87h-14.1s-5.14-1.09-3.6-7.77c0,0,1.54-4.62,7.7-3.59,0,0,1.54-5.65,7.19-2.05,0,0,8.21-3.08,8.73,4.62,0,0,5.74-1.1,5.18,5.61C284.57,85.69,284.52,90.34,273.47,88.87Z" fill="#ebebeb"/><path d="M228.08,118.12s-3.92-.67-3.92,3.66c0,0,0,2.17,3.25,2.53h9.42a5,5,0,0,0,2.48-.83A2,2,0,0,0,237.6,120l-.08,0s0-3.61-3.61-3.25C233.91,116.73,228.38,115.54,228.08,118.12Z" fill="#ebebeb"/><path d="M224.33,120.38h-9.91s-3.61-.76-2.53-5.46c0,0,1.08-3.24,5.42-2.52,0,0,1.08-4,5.05-1.45,0,0,5.78-2.16,6.14,3.25,0,0,4-.77,3.64,4C232.14,118.15,232.11,121.42,224.33,120.38Z" fill="#497991"/><path d="M361.87,125.67s-5.09-.87-5.09,4.77c0,0,0,2.81,4.23,3.28h12.25a6.38,6.38,0,0,0,3.23-1.07,2.6,2.6,0,0,0-2.23-4.59l-.1,0s0-4.7-4.7-4.23C369.46,123.86,362.26,122.31,361.87,125.67Z" fill="#ebebeb"/><path d="M357,128.61H344.09s-4.69-1-3.29-7.1c0,0,1.41-4.23,7.05-3.29,0,0,1.41-5.17,6.58-1.88,0,0,7.52-2.82,8,4.23,0,0,5.25-1,4.74,5.13C367.16,125.7,367.11,130,357,128.61Z" fill="#497991"/><path d="M479.62,121.2s-3.91-.67-3.91,3.66c0,0,0,2.17,3.25,2.53h9.41a5,5,0,0,0,2.49-.83,2,2,0,0,0-1.72-3.52l-.07,0s0-3.61-3.61-3.25C485.46,119.81,479.92,118.62,479.62,121.2Z" fill="#497991"/><path d="M475.88,123.46H466s-3.61-.76-2.52-5.46c0,0,1.08-3.24,5.41-2.52,0,0,1.08-4,5.06-1.45,0,0,5.77-2.16,6.13,3.25,0,0,4-.77,3.65,4C483.69,121.23,483.65,124.5,475.88,123.46Z" fill="#ebebeb"/><path d="M525.63,84.6s-5.09-.87-5.09,4.77c0,0,0,2.82,4.23,3.29H537a6.45,6.45,0,0,0,3.23-1.08A2.6,2.6,0,0,0,538,87l-.1,0s0-4.7-4.7-4.23C533.22,82.79,526,81.24,525.63,84.6Z" fill="#ebebeb"/><path d="M520.76,87.54H507.85s-4.69-1-3.28-7.1c0,0,1.41-4.23,7-3.29,0,0,1.41-5.17,6.58-1.88,0,0,7.52-2.82,8,4.23,0,0,5.25-1,4.74,5.13C530.92,84.63,530.88,88.9,520.76,87.54Z" fill="#497991"/><path d="M605.46,132.72h-12.9s-4.7-1-3.29-7.1c0,0,1.41-4.23,7.05-3.29,0,0,1.41-5.17,6.57-1.88,0,0,7.52-2.82,8,4.23,0,0,5.26-1,4.74,5.13C615.62,129.81,615.58,134.07,605.46,132.72Z" fill="#ebebeb"/><path d="M615,53.38H233.8a69.91,69.91,0,0,0-69.92,69.92V235.53a69.91,69.91,0,0,0,69.92,69.91H615a69.91,69.91,0,0,0,69.91-69.91V123.3A69.91,69.91,0,0,0,615,53.38Zm64.78,178.73a68.19,68.19,0,0,1-68.2,68.2H233.15a62.6,62.6,0,0,1-62.59-62.6V121.11a62.59,62.59,0,0,1,62.59-62.59H611.61a68.19,68.19,0,0,1,68.2,68.19Z" fill="#ef904b"/><rect x="163.88" y="53.38" width="521.06" height="252.06" rx="69.91" fill="#fff" opacity="0.44"/><path d="M235.4,237.68H623.26a25.14,25.14,0,0,1,25.14,25.14V386.55a0,0,0,0,1,0,0H210.25a0,0,0,0,1,0,0V262.82A25.14,25.14,0,0,1,235.4,237.68Z" fill="#ef904b"/><rect x="220.35" y="254.11" width="419.93" height="132.45" rx="32.57" fill="#611d1c"/><polygon points="332.15 330.82 329.41 342.83 343.15 375.62 429.29 354.92 440.58 239.22 442.77 188.81 432.88 186.86 392.07 187.02 332.15 330.82" fill="#fff" stroke="red" stroke-miterlimit="10"/><polygon points="720.88 442.51 126.41 442.51 211.11 386.55 646.95 386.55 720.88 442.51" fill="#ef904b"/><path d="M710.7,479H136.58a10.17,10.17,0,0,1-10.17-10.18l1-26.27H721.9l-1,26.27A10.18,10.18,0,0,1,710.7,479Z" fill="#611d1c"/><path d="M221.38,396.31l111.91-2.06v20.5a14.41,14.41,0,0,1-14.42,14.41H197.43a7.63,7.63,0,0,1-4.24-14Z" fill="#611d1c"/><path d="M348.18,375.26,306.36,546.57l-1.27,20.68H265.87L246,496.92S219.18,417.28,266.74,385l62.66-42.14Z" fill="#497991"/><path d="M348.18,375.26,306.36,546.57l-1.27,20.68H265.87L246,496.92S219.18,417.28,266.74,385l62.66-42.14Z" opacity="0.2"/><path d="M309.16,570.33H353s18.58-100.22,21.28-123c0,0,81.25-35.11,97.42-57.95,0,0,7.66-13.24-2.21-24.21l-55.55-18.65-39.66-2.47-43,35.83s-41.59,22.59-33.88,90.35Z" fill="#497991"/><path d="M427.34,172.65a19.92,19.92,0,0,1-10.88,6.2,19.49,19.49,0,0,1-10.27-.84c-9.15-3.25-16.94-12.89-19.34-25.36-3.26-17,4.71-32.79,17.79-35.3s26.34,9.21,29.61,26.19C436.45,155,433.52,166,427.34,172.65Z" fill="#f5ba93"/><path d="M427.25,202.91a23.47,23.47,0,0,1-8.76,2.05,22.66,22.66,0,0,1-8.22-1.2c-9.58-3.27-10.24-10.23-10.24-10.23-1.8-11.55,6.16-11.45,6.16-11.45V178a19.49,19.49,0,0,0,10.27.84,19.92,19.92,0,0,0,10.88-6.2l2,6.51c8.73,1.54,8.21,8.21,8.21,8.21C438.35,195.92,432.57,200.51,427.25,202.91Z" fill="#f5ba93"/><path d="M406.19,178v8.87l11.65-8.35S411.32,180.45,406.19,178Z" fill="#ef6d53"/><path d="M526.31,280.29l-13.86-46.72c-11.29-44.15-50.93-46.69-50.93-46.69l-22.69,11.54-19.73,40.8-5.21,121.66c9.93,1.8,55.55,4.29,55.55,4.29l-2.68-13C545.31,350.1,526.31,280.29,526.31,280.29Zm-58.52,25.15,3.32-21.68s4.38,15,7.46,17.06Z" fill="#d61e00"/><path d="M484.62,194.73c-8.55,7.79-13.33,19.55-15.9,30.62-2.62,11.43-3,23.23-2.47,34.92a113.94,113.94,0,0,1-.75-17.62c.61-16.76,5.55-36.92,19.12-47.92Z" opacity="0.2"/><path d="M461.52,186.88s6.8.66,10.13,2.11L452.9,237.68l-15.31,4.58,3,10.27L419.1,280.1v29.34l51.4-21.68-8.87,61.32,5.13,3.08,2.68,13s-35-1.72-55.55-4.29l5.21-121.66,19.73-40.8Z" opacity="0.2"/><path d="M432.88,337.27l11.3,8.21v6.2l-21.05-3.63s-14.38-37.47,15.91-37v21.56Z" fill="#d61e00"/><path d="M432.88,337.27l11.3,8.21v6.2l-21.05-3.63s-14.38-37.47,15.91-37v21.56Z" fill="#fff" opacity="0.3"/><polygon points="467.79 305.44 439.04 311.09 439.04 332.65 432.88 337.27 444.18 345.48 444.18 351.68 466.76 352.16 461.63 349.08 467.79 305.44" fill="#d61e00"/><path d="M391.52,182.44l8.3,51.52h2.88L371.79,346.51l-41.58-16.43,14.89-73.92L330.21,270.6v28.93s-13.86.78-16.43,22.85l-23.61-23.1s-16.94-15.91,3.59-45.17c0,0,24.13-62.12,72.9-69.82Z" fill="#d61e00"/><path d="M388.05,276l-9.58-31.68,4.79-3.45s-14-25.81-16.6-56.61l24.86-1.85,8.3,51.52h2.88L371.79,346.51l-41.58-16.43,12.94-64.26,38.91,30.89Z" opacity="0.2"/><path d="M363.75,189s-18.65,28.67-18.65,67.17L330.21,270.6v28.93s-13,.66-16,20l-17.36-17.65S284,292.61,292.74,269C292.74,269,323.87,193.7,363.75,189Z" opacity="0.2"/><path d="M341.5,320.84l4.62,59,62.12-21.05-2.57-63.14S371.79,293.12,341.5,320.84Z" fill="#87a654"/><path d="M316.35,285.42s15.4,11.29,25.15,35.42l4.62,59-22.58-32.34Z" fill="#87a654"/><path d="M316.35,285.42s15.4,11.29,25.15,35.42l4.62,59-22.58-32.34Z" opacity="0.2"/><path d="M313.78,322.38s0,7.7,4.62,13.35l6.05,7.91a1,1,0,0,0,1.45.2h0a1,1,0,0,0,.22-1.44l-1.86-2.58a.14.14,0,0,1,.2-.18L328,342.8a1.11,1.11,0,0,0,1.44,0h0a1.11,1.11,0,0,0,.2-1.5l-4.84-6.84a.19.19,0,0,1,.27-.27l6.13,4.77a1.46,1.46,0,0,0,2-.2h0a1.45,1.45,0,0,0-.08-2l-9.89-9.64a.12.12,0,0,1,.16-.19l6.22,4.49a1.73,1.73,0,0,0,2.57-.63h0a1.75,1.75,0,0,0-.43-2.11c-2.36-2-7.89-7-8.7-11.46a84.59,84.59,0,0,0-4.16-10.14S314.3,312.63,313.78,322.38Z" fill="#f5ba93"/><path d="M280.48,638s-7.12,7.88,0,11.44c0,0,5.58,1.5,8.66-1.06,0,0,3.6-3.6,6.16.51,0,0,4.11,6.16,13.35-1.54,0,0,2.05-2.57,5.13,1.54,0,0,4.11,2.57,8.73-1.54,0,0,4.62-5.13,9.24-1.54v2.75l24.13-2.75L354.16,629Z" fill="#497991"/><path d="M468.58,340a8.8,8.8,0,0,0,.51,1.74Z" fill="none" stroke="red" stroke-miterlimit="10"/><path d="M501.94,334.29c1.29-9.15-4.37-12.93-4.37-12.93-8.73-8.22-25.92,7.44-25.92,7.44-3.63,4.66-3.53,8.93-3.08,11.22v0l.51,1.74c-14.09-2.67-18.75,10.38-18.75,10.38-9.76,21-19.52,64.58-19.52,64.58-1.85,5.7-2.11,9.9-1.67,12.95a9.84,9.84,0,0,0,4.6,6.95h0a10,10,0,0,0,3.57,1.35A27.72,27.72,0,0,0,452,436.86c1.63,5.65,8.63,0,8.63,0,3.6,8.22,8.73,8.73,8.73,8.73S464.2,342.4,501.67,339.32a32.8,32.8,0,0,1,16.68.49C512.45,332.58,501.94,334.29,501.94,334.29Zm-55.06,75.54-11.64,7a240.39,240.39,0,0,1,5.82-23.64L457,348.56h5.65S448.28,369.61,446.88,409.83Zm52.74-76.67a45.55,45.55,0,0,0-28,6.86c-.21-7,12.42-12.61,17.05-14.44a9.15,9.15,0,0,1,4.88-.57C500,326.09,499.62,333.16,499.62,333.16Z" fill="#29302c"/><path d="M459.06,394.25s-1.26-54.22,48.14-60c0,0-1.4-.42-5.26,0l.17-1.83S453.42,338.81,459.06,394.25Z" fill="#fff"/><polygon points="451.88 401.44 455.38 404.13 462.66 396.22 458.61 393.23 451.88 401.44" fill="#fff"/><path d="M469.09,341.78c-14.09-2.67-18.75,10.38-18.75,10.38-9.76,21-19.52,64.58-19.52,64.58-1.85,5.7-2.11,9.9-1.67,12.95a9.84,9.84,0,0,0,4.6,6.95c-.47-.06-8.09-1.14-9.08-11.59,0,0,4.11-31.82,15.4-58.52l6.9-18s4.42-13,21.6-8.54v0Z" fill="#f29f04"/><path d="M648.19,429.16H542.78a14.41,14.41,0,0,1-14.41-14.41v-20.5l111.91,2.06,15.19,12.3A11.56,11.56,0,0,1,648.19,429.16Z" fill="#611d1c"/><path d="M397.19,120.54s10.73,7.45,35.28,16.61c0,0,8.32,20.27-5.13,35.5l2,6.51s7.7.51,8.21,8.21a64,64,0,0,1,1.31,15.88,32.29,32.29,0,0,1-5.92,17.34c-4.1,5.75-9,15.26,1.79,17.26,0,0-10-6.33,1.8-13,0,0,32.85-17.45,24.12-41.06a46.5,46.5,0,0,0,8.8-25.11,42,42,0,0,0-13.09-32c-5.43-5.21-12.9-13.54-14.19-20.92,0,0-8.21-24.13-35.42-19.51,0,0-18,1.54-19.51,15.91,0,0-24.64,4.62-16.94,39a65.15,65.15,0,0,0,11.81,23.61,10.82,10.82,0,0,1-.3,13.23s-18.69,17.57.3,61.21c0,0-7.19-30.29,18-45.69,0,0-2.06-10.59,6.16-11.45V178s-17.2-5.27-19.95-29.91C386.24,148.1,384.09,130.19,397.19,120.54Z" fill="#c95e01"/><ellipse cx="434.68" cy="144.76" rx="5.9" ry="8.21" fill="#f5ba93"/><path d="M418.49,205a22.66,22.66,0,0,1-8.22-1.2c-9.58-3.27-10.24-10.23-10.24-10.23-1.8-11.55,6.16-11.45,6.16-11.45v-.7h.51v5C402,197.93,414.34,203.46,418.49,205Z" fill="#ef6d53"/><path d="M422.8,318l-16.61-4.3v5.84s4.1,1.86,1,4.42l-15.95,4.88H376.21a.8.8,0,0,0-.46,1.45c2.83,2,8.54,5.17,15,4.45l8.24-1.17a.21.21,0,0,1,.09.41l-7.66,2.44a8.06,8.06,0,0,1-2.43.38H375.5a1.28,1.28,0,0,0-.89,2.19c2.62,2.58,9,6,22.86,1.41a.4.4,0,0,1,.4.66,16.23,16.23,0,0,1-9.65,4.46l-9.75.88a1.09,1.09,0,0,0-.56,2c1.18.86,3.53,1.54,8.26.76,0,0,8.37,0,12.55-1.82a.21.21,0,0,1,.23.34c-1.53,1.42-4.56,3.75-8.13,4.08,0,0-6.19,0-5.68,3,0,0,10.78,1.54,20-4.1,0,0,9.68-5.21,16.65-6.71C421.81,343.91,416.3,327.91,422.8,318Z" fill="#f5ba93"/><path d="M545.31,420.43s-60.85,19.51-76,25.16c0,0-5.13-103.19,32.34-106.27a32.8,32.8,0,0,1,16.68.49c6.87,2.15,14.07,7.45,17.72,19.53C536.07,359.34,543.77,379.88,545.31,420.43Z" fill="#f29f04"/><path d="M540.69,419.41l-54.93,16.36c14.37-10.72,14.89-17.9,14.89-17.9,2.05-10.27-14.89-24.64-14.89-24.64l50.31-10.78C547.87,398.36,540.69,419.41,540.69,419.41Z" fill="#29302c"/><path d="M500.65,417.87s-.52,7.18-14.89,17.9V393.23S502.7,407.6,500.65,417.87Z" opacity="0.2"/><line x1="502.7" y1="400.41" x2="536.49" y2="392.02" fill="none" stroke="#fff" stroke-linecap="round" stroke-linejoin="round"/><polygon points="493.29 358.21 494.49 369.61 522.92 362.68 522.25 351.68 493.29 358.21" fill="#fff"/><path d="M309.16,570.33l4.11,34.4s5.13,14.89-10.78,21.56c0,0-15.57,2.94-20.93,8.15a3.55,3.55,0,0,0,2.15,6.07c9.2.87,36.23,2.43,62.93-5.49,0,0,12.83-2.57,5.64-14.89,0,0-5.86-5.65-1.65-28l3.84-21.82Z" fill="#d61e00"/><path d="M316.35,285.42l10.37-4.18s20.29,14.95,14.78,39.6C341.5,320.84,334,299.49,316.35,285.42Z" fill="#fff"/><path d="M405.67,295.69l.52-11.93s-49.18-.57-64.69,37.08C341.5,320.84,368,294.49,405.67,295.69Z" fill="#e6e6e6"/></svg>